<?xml version="1.0" encoding="UTF-8" standalone="no"?>
<!DOCTYPE svg PUBLIC "-//W3C//DTD SVG 1.1//EN" "http://www.w3.org/Graphics/SVG/1.1/DTD/svg11.dtd">
<svg width="100%" height="100%" viewBox="0 0 1024 1024" version="1.1" xmlns="http://www.w3.org/2000/svg" xmlns:xlink="http://www.w3.org/1999/xlink" xml:space="preserve" xmlns:serif="http://www.serif.com/" style="fill-rule:evenodd;clip-rule:evenodd;stroke-linejoin:round;stroke-miterlimit:2;">
    <rect id="logo" x="0" y="0" width="1024" height="1024" style="fill:none;"/>
    <g id="logo1" serif:id="logo">
        <g transform="matrix(0.978114,0,0,0.250727,0.612464,352.036)">
            <path d="M1046.29,418.313C1046.29,182.947 997.304,-8.14 936.971,-8.14L108.689,-8.14C48.356,-8.14 -0.626,182.947 -0.626,418.313L-0.626,857.688C-0.626,1093.05 48.356,1284.14 108.689,1284.14L936.971,1284.14C997.304,1284.14 1046.29,1093.05 1046.29,857.688L1046.29,418.313Z" style="fill:white;"/>
        </g>
        <g transform="matrix(1.03067,0,0,1.03067,-20.5432,-5.31452)">
            <path d="M371.921,441.556C371.921,407.928 344.619,380.626 310.991,380.626L155.879,380.626C122.25,380.626 94.949,407.928 94.949,441.556L94.949,563.416C94.949,597.044 122.25,624.346 155.879,624.346L310.991,624.346C344.619,624.346 371.921,597.044 371.921,563.416L371.921,441.556Z" style="fill:rgb(255,105,0);fill-opacity:0.44;"/>
            <path d="M371.921,441.556C371.921,407.928 344.619,380.626 310.991,380.626L155.879,380.626C122.25,380.626 94.949,407.928 94.949,441.556L94.949,563.416C94.949,597.044 122.25,624.346 155.879,624.346L310.991,624.346C344.619,624.346 371.921,597.044 371.921,563.416L371.921,441.556ZM367.878,441.556L367.878,563.416C367.878,594.813 342.388,620.303 310.991,620.303L155.879,620.303C124.482,620.303 98.991,594.813 98.991,563.416L98.991,441.556C98.991,410.159 124.482,384.669 155.879,384.669L310.991,384.669C342.388,384.669 367.878,410.159 367.878,441.556Z"/>
        </g>
        <g transform="matrix(1.03067,0,0,1.03067,562.313,-5.77843)">
            <path d="M371.921,441.556C371.921,407.928 344.619,380.626 310.991,380.626L155.879,380.626C122.25,380.626 94.949,407.928 94.949,441.556L94.949,563.416C94.949,597.044 122.25,624.346 155.879,624.346L310.991,624.346C344.619,624.346 371.921,597.044 371.921,563.416L371.921,441.556Z" style="fill:rgb(0,255,110);fill-opacity:0.53;"/>
            <path d="M371.921,441.556C371.921,407.928 344.619,380.626 310.991,380.626L155.879,380.626C122.25,380.626 94.949,407.928 94.949,441.556L94.949,563.416C94.949,597.044 122.25,624.346 155.879,624.346L310.991,624.346C344.619,624.346 371.921,597.044 371.921,563.416L371.921,441.556ZM367.878,441.556L367.878,563.416C367.878,594.813 342.388,620.303 310.991,620.303C310.991,620.303 155.879,620.303 155.879,620.303C124.482,620.303 98.991,594.813 98.991,563.416C98.991,563.416 98.991,441.556 98.991,441.556C98.991,410.159 124.482,384.669 155.879,384.669L310.991,384.669C342.388,384.669 367.878,410.159 367.878,441.556Z"/>
        </g>
        <g transform="matrix(0.869682,0,0,1.03067,170.057,69.8726)">
            <path d="M553.528,357.675C553.528,330.328 527.216,308.126 494.807,308.126L290.207,308.126C257.798,308.126 231.486,330.328 231.486,357.675L231.486,456.773C231.486,484.12 257.798,506.322 290.207,506.322L494.807,506.322C527.216,506.322 553.528,484.12 553.528,456.773L553.528,357.675Z" style="fill:rgb(0,117,255);fill-opacity:0.44;"/>
            <path d="M553.528,357.675C553.528,330.328 527.216,308.126 494.807,308.126L290.207,308.126C257.798,308.126 231.486,330.328 231.486,357.675L231.486,456.773C231.486,484.12 257.798,506.322 290.207,506.322L494.807,506.322C527.216,506.322 553.528,484.12 553.528,456.773L553.528,357.675ZM548.737,357.675L548.737,456.773C548.737,481.889 524.572,502.28 494.807,502.28C494.807,502.28 290.207,502.28 290.207,502.28C260.442,502.28 236.277,481.889 236.277,456.773C236.277,456.773 236.277,357.675 236.277,357.675C236.277,332.56 260.442,312.169 290.207,312.169L494.807,312.169C524.572,312.169 548.737,332.56 548.737,357.675Z"/>
        </g>
    </g>
</svg>
